:SAMPLES-PER-SECOND 30
:FULLY-SPECIFIED
:DEGREES
293
root  34.92632888 36.48842639 -14.96144843 8.106231689 -5.605594635 4.23474741
lowerback  -7.203270435 -1.284700036 -0.8466266394
upperback  -4.112699986 -1.20175004 -3.622050047
thorax  -0.2680479884 -0.4388540089 -3.344480038
lowerneck  -13.32600021 -0.617734015 -0.2355999947
upperneck  17.26910019 -1.398530126 5.09637022
head  7.5552001 -0.03766897321 1.588260055
lclavicle  0 -4.497500157e-015 -2.743230041e-014
lhumerus  -49.05379868 28.30150032 63.3451004
lradius  5.228657756e-007 -6.507048965e-006 31.59944153
lwrist  4.824992743e-007 -3.790274832e-007 -25.76729965
lhand  -4.385901518e-031 -36.37929916 -10.68710041
lfingers  90 7.125020027 -90
lthumb  94.57459891 -25.540752 100.5131587
rclavicle  0 -4.497500157e-015 -2.743230041e-014
rhumerus  -58.60340118 -22.6534996 -16.42739868
rradius  -5.16745672e-007 2.214343908e-008 102.9029999
rwrist  -0.0001064338358 0.02974390797 171.7560272
rhand  -1.770005545e-031 4.060510159 -5.005809784
rfingers  -90 -7.125020027 -90
rthumb  -83.87027243 -10.69916081 -59.9519694
rfemur  -12.6522274 16.08459663 12.29424095
rtibia  -1.645608664 -1.339200974 21.85100174
rfoot  -0.08499991894 -22.23888206 -35.66027451
rtoes  3.863158045 19.63836137 -101.3608614
lfemur  -8.21741581 -18.17911148 -21.25155449
ltibia  2.417121172 -1.963065624 15.354249
lfoot  1.106906891 -22.18546867 38.66227722
ltoes  -8.568016355 -18.14006871 -115.8233677
294
root  34.92165213 36.48748022 -14.96097985 8.088389397 -5.521803856 4.234371662
lowerback  -7.252270222 -1.273669958 -0.817407608
upperback  -4.111609936 -1.187819958 -3.603219986
thorax  -0.2393289953 -0.4322189987 -3.341399908
lowerneck  -13.35050011 -0.4964520037 -0.1988990009
upperneck  17.28739929 -1.247169852 5.152120113
head  7.561389923 0.04421638325 1.616670012
lclavicle  0 -4.497500157e-015 -2.743230041e-014
lhumerus  -49.04809952 28.36300087 63.35139847
lradius  5.228657756e-007 -6.507048965e-006 31.57724762
lwrist  4.824992743e-007 -3.790274832e-007 -25.93619919
lhand  -0 -36.34569931 -10.66759968
lfingers  90 7.125020027 -90
lthumb  94.55495844 -25.52278053 100.4755595
rclavicle  0 -4.497500157e-015 -2.743230041e-014
rhumerus  -58.9742012 -22.44330025 -17.45480347
rradius  -5.16745672e-007 2.214343908e-008 102.8899994
rwrist  -0.0001064338358 0.02974390797 171.8170319
rhand  -0 3.965660095 -4.691810131
rfingers  -90 -7.125020027 -90
rthumb  -83.73572903 -10.96697402 -60.01514695
rfemur  -12.60906696 16.10422707 12.3242979
rtibia  -1.652146935 -1.31299448 21.84230042
rfoot  -0.0941125229 -22.18728828 -35.74753571
rtoes  3.873909414 19.63632385 -101.3928533
lfemur  -8.197910309 -18.10273552 -21.24354553
ltibia  2.431367874 -1.911696076 15.34278774
lfoot  1.097898245 -22.2915802 38.5401001
ltoes  -8.568534786 -18.13983029 -115.8250329
295
root  34.91673507 36.48840837 -14.96049776 8.109851837 -5.471328735 4.230722427
lowerback  -7.200809956 -1.234410048 -0.7824910879
upperback  -4.131490231 -1.141350031 -3.581039906
thorax  -0.286161989 -0.410183996 -3.333760023
lowerneck  -13.30300045 -0.3573909998 -0.08428139985
upperneck  17.25889969 -1.064340115 5.087790012
head  7.537350178 0.1318630129 1.594889998
lclavicle  0 -4.497500157e-015 -2.743230041e-014
lhumerus  -49.06470108 28.3302002 63.43320084
lradius  5.228657756e-007 -6.507048965e-006 31.59309959
lwrist  4.824992743e-007 -3.790274832e-007 -25.92180061
lhand  -0 -36.36439896 -10.68900013
lfingers  90 7.125020027 -90
lthumb  94.56799749 -25.54317948 100.497352
rclavicle  0 -4.497500157e-015 -2.743230041e-014
rhumerus  -59.30070114 -22.14990044 -18.42149925
rradius  -5.16745672e-007 2.214343908e-008 102.7809982
rwrist  -0.0001064338358 0.02974390797 171.917038
rhand  -1.770405193e-031 4.238800049 -4.954619884
rfingers  -90 -7.125020027 -90
rthumb  -83.79667712 -10.75118695 -59.77201385
rfemur  -12.60759449 16.08935738 12.32863426
rtibia  -1.647929549 -1.345585346 21.82046318
rfoot  -0.1137615591 -22.25395012 -35.8074379
rtoes  3.868747281 19.63730288 -101.3774924
lfemur  -8.22396183 -18.09521294 -21.21626663
ltibia  2.435849428 -1.871957064 15.33885574
lfoot  1.11167872 -22.36375618 38.53218842
ltoes  -8.552365118 -18.14725805 -115.7731069
296
root  34.91128035 36.48909621 -14.95982042 8.12339592 -5.407844543 4.219092846
lowerback  -7.27434063 -1.208840013 -0.7418699265
upperback  -4.085539818 -1.110829949 -3.563730001
thorax  -0.1969130039 -0.3967519999 -3.338219881
lowerneck  -13.30720043 -0.1680639982 0.1353649944
upperneck  17.23019981 -0.8196728826 4.921770096
head  7.520339966 0.2453229874 1.528530002
lclavicle  0 -4.497500157e-015 -2.743230041e-014
lhumerus  -48.95999908 28.35059929 63.53620148
lradius  5.228657756e-007 -6.507048965e-006 31.57090187
lwrist  4.824992743e-007 -3.790274832e-007 -25.83209991
lhand  -4.387430788e-031 -36.40639877 -10.70549965
lfingers  90 7.125020027 -90
lthumb  94.59101029 -25.55793571 100.5437188
rclavicle  0 -4.497500157e-015 -2.743230041e-014
rhumerus  -59.68740082 -22.13369942 -19.38759995
rradius  -5.16745672e-007 2.214343908e-008 102.6910019
rwrist  -0.0001064338358 0.02974390797 171.9600525
rhand  -1.770594492e-031 4.320660114 -4.783820152
rfingers  -90 -7.125020027 -90
rthumb  -83.68702182 -10.90218098 -59.67516333
rfemur  -12.60373402 16.03840637 12.34751225
rtibia  -1.644268274 -1.367166519 21.80533791
rfoot  -0.1226836741 -22.30774879 -35.83269501
rtoes  3.877184092 19.63570209 -101.4025981
lfemur  -8.212740898 -18.03492165 -21.19147682
ltibia  2.458042145 -1.781742096 15.2983675
lfoot  1.136833191 -22.53121758 38.51900482
ltoes  -8.582397224 -18.13344845 -115.8695659
297
root  34.90794625 36.48978406 -14.95907401 8.134707451 -5.346915722 4.214520931
lowerback  -7.320700645 -1.191700101 -0.7173120975
upperback  -4.065690041 -1.090489984 -3.539669991
thorax  -0.1496769935 -0.3875910044 -3.326600075
lowerneck  -13.37989998 -0.05363279954 0.08452410251
upperneck  17.3159008 -0.6745019555 5.055970192
head  7.558199883 0.3290889859 1.597869992
lclavicle  0 -4.497500157e-015 -2.743230041e-014
lhumerus  -48.92520905 28.34090424 63.64346313
lradius  5.228657756e-007 -6.507048965e-006 31.6317997
lwrist  4.824992743e-007 -3.790274832e-007 -25.58550072
lhand  -0 -36.44319916 -10.77050018
lfingers  90 7.125020027 -90
lthumb  94.6215456 -25.62064896 100.5888757
rclavicle  0 -4.497500157e-015 -2.743230041e-014
rhumerus  -59.99729919 -22.07999992 -20.41959572
rradius  -5.16745672e-007 2.214343908e-008 102.5859985
rwrist  -0.0001064338358 0.02974390797 172.2520142
rhand  -1.772387816e-031 5.02989006 -5.258230209
rfingers  -90 -7.125020027 -90
rthumb  -83.74212933 -10.52569683 -59.024498
rfemur  -12.62658405 16.08031654 12.36785507
rtibia  -1.653648615 -1.325354218 21.83935356
rfoot  -0.1601513326 -22.23393059 -35.9521904
rtoes  3.889286348 19.63339947 -101.4386146
lfemur  -8.20142746 -17.99090385 -21.17811966
ltibia  2.478683949 -1.751971245 15.25660133
lfoot  1.124530196 -22.55634308 38.44923019
ltoes  -8.578511328 -18.13523869 -115.857081
